<svg xmlns="http://www.w3.org/2000/svg" width="46" height="34" viewBox="0 0 46 34">
  <path d="M42,2a2,2,0,0,1,2,2V30a2,2,0,0,1-2,2H4a2,2,0,0,1-2-2V4A2,2,0,0,1,4,2H42m0-2H4A4,4,0,0,0,0,4V30a4,4,0,0,0,4,4H42a4,4,0,0,0,4-4V4a4,4,0,0,0-4-4Z"/>
  <path d="M16.64,12.17,14,18.76l-1-5.6a1.18,1.18,0,0,0-1.16-1H7.56l-.06.28a10.35,10.35,0,0,1,2.47.83,1.05,1.05,0,0,1,.6.85l2,7.72h2.65l4.06-9.68Zm3.7,0-2.07,9.68h2.51l2.07-9.68Zm14.37,2.62.76,3.63H33.39Zm-.37-2.62a1.15,1.15,0,0,0-1.07.71l-3.76,9h2.63l.53-1.44h3.21l.3,1.44H38.5l-2-9.68Zm-10.81,3c0,1.4,1.25,2.18,2.19,2.64S27,18.61,27,19c0,.65-.77.94-1.5.95A5.26,5.26,0,0,1,23,19.37l-.45,2.12a7.67,7.67,0,0,0,2.78.52c2.64,0,4.36-1.3,4.36-3.32,0-2.55-3.53-2.69-3.5-3.84,0-.34.33-.71,1.06-.81a4.79,4.79,0,0,1,2.47.44l.44-2.06A6.75,6.75,0,0,0,27.76,12c-2.47,0-4.21,1.32-4.23,3.2"/>
</svg>
