<svg xmlns="http://www.w3.org/2000/svg" width="46" height="34" viewBox="0 0 46 34">
  <path d="M42,2a2,2,0,0,1,2,2V30a2,2,0,0,1-2,2H4a2,2,0,0,1-2-2V4A2,2,0,0,1,4,2H42m0-2H4A4,4,0,0,0,0,4V30a4,4,0,0,0,4,4H42a4,4,0,0,0,4-4V4a4,4,0,0,0-4-4Z"/>
  <path d="M14,12.44a2.26,2.26,0,0,0,.51-1.59,2.17,2.17,0,0,0-1.46.76,2,2,0,0,0-.52,1.52A1.83,1.83,0,0,0,14,12.44m.51.8c-.82-.05-1.51.46-1.9.46s-1-.43-1.63-.42a2.37,2.37,0,0,0-2,1.24c-.88,1.51-.23,3.74.62,5,.41.61.91,1.28,1.57,1.26s.86-.4,1.61-.4,1,.4,1.63.39,1.11-.61,1.52-1.22a5,5,0,0,0,.68-1.4,2.2,2.2,0,0,1-1.32-2,2.23,2.23,0,0,1,1.07-1.88,2.35,2.35,0,0,0-1.81-1m7.09-1.7a2.87,2.87,0,0,1,3,3,2.89,2.89,0,0,1-3.05,3h-2v3.12H18.16V11.54Zm-2,4.82H21.2a1.71,1.71,0,0,0,1.94-1.81,1.71,1.71,0,0,0-1.93-1.81H19.58v3.62ZM25,18.78c0-1.16.89-1.88,2.47-2l1.82-.1v-.52c0-.74-.5-1.18-1.33-1.18a1.28,1.28,0,0,0-1.41,1H25.22c.08-1.2,1.1-2.08,2.75-2.08s2.64.85,2.64,2.19v4.58H29.3V19.58h0a2.39,2.39,0,0,1-2.1,1.21A2,2,0,0,1,25,18.78Zm4.29-.6v-.53l-1.64.11c-.81,0-1.28.41-1.28,1s.48,1,1.22,1A1.59,1.59,0,0,0,29.25,18.18Zm2.6,4.94V22a2.08,2.08,0,0,0,.44,0,1.11,1.11,0,0,0,1.18-.95s.12-.41.12-.41L31.19,14h1.48l1.68,5.41h0L36.06,14H37.5L35,21c-.57,1.61-1.23,2.13-2.61,2.13A4.93,4.93,0,0,1,31.85,23.12Z"/>
</svg>
