<svg xmlns="http://www.w3.org/2000/svg" width="46" height="34" viewBox="0 0 46 34">
  <path d="M42,2a2,2,0,0,1,2,2V30a2,2,0,0,1-2,2H4a2,2,0,0,1-2-2V4A2,2,0,0,1,4,2H42m0-2H4A4,4,0,0,0,0,4V30a4,4,0,0,0,4,4H42a4,4,0,0,0,4-4V4a4,4,0,0,0-4-4Z"/>
  <path d="M10,14.89c-.14,1-.89,1-1.61,1H8L8.27,14a.24.24,0,0,1,.23-.19h.19c.49,0,1,0,1.19.28A.9.9,0,0,1,10,14.89ZM9.7,12.34H7a.38.38,0,0,0-.38.32l-1.1,7a.23.23,0,0,0,.23.26H7a.38.38,0,0,0,.37-.32l.3-1.88a.38.38,0,0,1,.37-.32h.86A2.8,2.8,0,0,0,12,14.79,2.09,2.09,0,0,0,11.68,13,2.52,2.52,0,0,0,9.7,12.34Zm8.14,2.52H16.53a.22.22,0,0,0-.22.19l-.06.36-.09-.13a1.85,1.85,0,0,0-1.54-.55,3,3,0,0,0-2.91,2.62,2.47,2.47,0,0,0,.49,2,2,2,0,0,0,1.64.66,2.48,2.48,0,0,0,1.8-.75l-.06.37a.23.23,0,0,0,.23.26H17a.39.39,0,0,0,.38-.32l.7-4.46A.22.22,0,0,0,17.84,14.86Zm-3.29,3.78a1.12,1.12,0,0,1-.88-.35,1.13,1.13,0,0,1-.2-.92,1.46,1.46,0,0,1,1.46-1.25A1,1,0,0,1,16,17.39,1.46,1.46,0,0,1,14.55,18.64Zm10.23-3.78H23.47a.38.38,0,0,0-.31.16l-1.81,2.66-.77-2.55a.37.37,0,0,0-.36-.27H18.93a.23.23,0,0,0-.21.3l1.44,4.23-1.35,1.92a.22.22,0,0,0,.18.35H20.3a.38.38,0,0,0,.31-.16L25,15.21A.23.23,0,0,0,24.78,14.86ZM31.1,13a2.54,2.54,0,0,0-2-.69H26.4a.38.38,0,0,0-.38.32l-1.1,7a.23.23,0,0,0,.22.26h1.4a.27.27,0,0,0,.26-.22l.32-2a.36.36,0,0,1,.37-.32h.86a2.8,2.8,0,0,0,3.1-2.59A2.12,2.12,0,0,0,31.1,13Zm-1.67,1.86c-.15,1-.89,1-1.62,1H27.4L27.69,14a.23.23,0,0,1,.23-.19h.19c.49,0,.95,0,1.19.28A.9.9,0,0,1,29.43,14.89Zm7.82,0H36a.22.22,0,0,0-.22.19l-.06.36-.09-.13A1.85,1.85,0,0,0,34,14.73a3,3,0,0,0-2.91,2.62,2.5,2.5,0,0,0,.48,2,2.08,2.08,0,0,0,1.65.66,2.48,2.48,0,0,0,1.8-.75l-.06.37a.23.23,0,0,0,.23.26H36.4a.37.37,0,0,0,.37-.32l.71-4.46A.23.23,0,0,0,37.25,14.86ZM34,18.64a1.12,1.12,0,0,1-.88-.35,1.13,1.13,0,0,1-.2-.92,1.46,1.46,0,0,1,1.46-1.25,1,1,0,0,1,1.09,1.27A1.46,1.46,0,0,1,34,18.64Zm6.3-6.3H39a.23.23,0,0,0-.23.19l-1.12,7.11a.23.23,0,0,0,.23.26H39a.39.39,0,0,0,.38-.32l1.1-7A.23.23,0,0,0,40.27,12.34Z"/>
</svg>
