<svg xmlns="http://www.w3.org/2000/svg" width="110" height="120" viewBox="0 0 110 120">
  <path class="uk-text-danger" fill="#f89ea7" d="M17.31,77.24a27.59,27.59,0,0,0,7.3,1.7A42.08,42.08,0,0,0,21,88c-2,7.9-1.5,17.3,4.3,24a19.83,19.83,0,0,0,18.5,6.4A20.36,20.36,0,0,0,59,105.34a26.7,26.7,0,0,0,1.8-7.9,38.16,38.16,0,0,0,26,5.9c6.9-1.1,13.6-4.4,17-11.1,3.7-7.2,2.2-16-2.1-23.2a33.09,33.09,0,0,0-8.9-9.7A26.7,26.7,0,0,0,107,44.94c2.5-6.3,2.7-14.9-1.7-20.8-5.2-7-14-6.7-20.8-4.8a26.19,26.19,0,0,0-7.2,3.3A30.2,30.2,0,0,0,75,15c-4.2-8.7-12.7-13.9-21.3-13.8-8.9.1-15.7,7-17.9,15.9a32.63,32.63,0,0,0-.6,12.8c-9-4.5-19.7-4.2-27,3.5C-3.59,46.14-.39,70.44,17.31,77.24Zm78,9.3a7.41,7.41,0,0,0,.1-2.1,14.27,14.27,0,0,0,.8-2.2A10,10,0,0,1,95.31,86.54ZM84,54.14l-2.7-1.2c.1-.1.2-.2.2-.3s.2-.3.3-.4c1.4,1.4,3.6,2,5,.6l.9-.9a2.36,2.36,0,0,0,.9.6A17.91,17.91,0,0,1,84,54.14Zm-36.8-38.5c-.1.5-.2,1-.3,1.4a41,41,0,0,0-2.3,10.5,18.75,18.75,0,0,1,.1-4.1A16,16,0,0,1,47.21,15.64Z"/>
  <path class="uk-text-warning" fill="#fcde63" d="M38.11,62.64a11.89,11.89,0,0,0,1.9,7.1,16.18,16.18,0,0,0,5.9,7.1c6.6,4.1,15.1,1.6,21.6-3.5,5.2-4.1,9.7-10.1,9.1-16-.4-4-3-6.6-6.4-8.5a24.74,24.74,0,0,0-5.7-6.9c-5.2-4.2-12.7-2.7-18,2.3a25.26,25.26,0,0,0-7.8,15A9.74,9.74,0,0,0,38.11,62.64Z"/>
</svg>
