<svg xmlns="http://www.w3.org/2000/svg" width="128" height="37" viewBox="0 0 128 37">
  <path d="M37.77,26.7a4,4,0,0,0,1.65-1.55,4.36,4.36,0,0,0,.6-2.3,3.9,3.9,0,0,0-1.67-3.34,8.13,8.13,0,0,0-4.78-1.21H25.38V35.8h8.69a8.73,8.73,0,0,0,5.1-1.24,4,4,0,0,0,1.75-3.51,4.39,4.39,0,0,0-.85-2.76A4.61,4.61,0,0,0,37.77,26.7Zm-9.15-5.85h4.61a4.75,4.75,0,0,1,2.61.61,2.05,2.05,0,0,1,.91,1.82,2,2,0,0,1-.91,1.78,4.66,4.66,0,0,1-2.61.62H28.62Zm5.26,12.4H28.62V28.2h5.26q3.76,0,3.77,2.53T33.88,33.25Z" fill="#fff"/>
  <path d="M53.37,18.43,45.5,35.93h3.35l1.72-4.05h8.75l1.75,4.05h3.4l-7.9-17.5Zm-1.7,10.9L55,21.68l3.3,7.65Z" fill="#fff"/>
  <polygon points="73.65 18.43 70.4 18.43 70.4 35.93 82.8 35.93 82.8 33.18 73.65 33.18 73.65 18.43" fill="#fff"/>
  <path d="M100.25,19.34a10.61,10.61,0,0,0-9.65,0,8.65,8.65,0,0,0-3.38,3.22,9.34,9.34,0,0,0,0,9.23A8.65,8.65,0,0,0,90.6,35a10.53,10.53,0,0,0,9.65,0,8.54,8.54,0,0,0,3.37-3.21,9.31,9.31,0,0,0,0-9.25A8.61,8.61,0,0,0,100.25,19.34Zm.52,11a5.67,5.67,0,0,1-2.2,2.2,6.68,6.68,0,0,1-6.3,0,5.81,5.81,0,0,1-2.2-2.2,6.66,6.66,0,0,1,0-6.33,5.81,5.81,0,0,1,2.2-2.2,6.75,6.75,0,0,1,6.3,0,5.67,5.67,0,0,1,2.2,2.2,6.66,6.66,0,0,1,0,6.33Z" fill="#fff"/>
  <path d="M123.47,18.43v9.75q0,5.15-4.42,5.15t-4.45-5.15V18.43h-3.25V28.3a7.92,7.92,0,0,0,2,5.84,8.83,8.83,0,0,0,11.29,0,8,8,0,0,0,2-5.84V18.43Z" fill="#fff"/>
  <path d="M52.16,6.42c.47,1.83-.69,4-2,5.16l2.61,1.24A6.92,6.92,0,0,0,55,5.47,7.46,7.46,0,0,0,46.22.67a7,7,0,0,0-5.56,5,28.74,28.74,0,0,0-15.33.9,28.67,28.67,0,0,0-12.78,8.52,7,7,0,0,0-7.48-.67A7.46,7.46,0,0,0,1,23.57a6.69,6.69,0,0,0,4.42,4.19A14.91,14.91,0,0,0,5.65,36l2.9,0a17.32,17.32,0,0,1,0-9.12C8.84,26,9,25.67,9,25.67L7.63,25.5A4.7,4.7,0,0,1,3.8,22.62c-.74-2.19.28-4.34,2.59-5.48,1.81-.89,3.6-.49,5.34,1.19L13,19.51l1-1.37a25.3,25.3,0,0,1,12.3-8.7A25.38,25.38,0,0,1,41.34,9L43,9.46l.26-1.69c.38-2.38,1.57-3.78,3.55-4.15C49.32,3.13,51.57,4.19,52.16,6.42Z" fill="#fff"/>
</svg>
