<svg xmlns="http://www.w3.org/2000/svg" width="115" height="34" viewBox="0 0 115 34">
  <path d="M35.62,23.34a3.91,3.91,0,0,0,.54-2.06,3.47,3.47,0,0,0-1.5-3,7.15,7.15,0,0,0-4.27-1.09H23.06V32.86h7.78a7.91,7.91,0,0,0,4.56-1.1A3.65,3.65,0,0,0,37,28.61a4,4,0,0,0-.76-2.47,4.24,4.24,0,0,0-2.06-1.42A3.56,3.56,0,0,0,35.62,23.34ZM26,19.49h4.11a4.17,4.17,0,0,1,2.34.55,1.84,1.84,0,0,1,.81,1.62,1.82,1.82,0,0,1-.81,1.6,4.26,4.26,0,0,1-2.34.55H26Zm4.69,11.09H26V26.07h4.69c2.25,0,3.38.75,3.38,2.25S32.91,30.58,30.66,30.58Z" fill="#26244c"/>
  <path d="M41.14,32.72h3l1.54-3.62H53.5l1.57,3.62h3L51,17.07H48.18Zm11.4-5.9H46.66L49.59,20Z" fill="#26244c"/>
  <polygon points="74.11 30.26 65.93 30.26 65.93 17.07 63.02 17.07 63.02 32.72 74.11 32.72 74.11 30.26" fill="#26244c"/>
  <path d="M93.12,29a7.89,7.89,0,0,0,1.09-4.13,7.93,7.93,0,0,0-1.09-4.14,7.73,7.73,0,0,0-3-2.87,9.47,9.47,0,0,0-8.63,0,7.68,7.68,0,0,0-3,2.88,8.35,8.35,0,0,0,0,8.25,7.77,7.77,0,0,0,3,2.89,9.47,9.47,0,0,0,8.63,0A7.75,7.75,0,0,0,93.12,29Zm-4.52.66a5.94,5.94,0,0,1-5.63,0,5.08,5.08,0,0,1-2-2,6,6,0,0,1,0-5.66,5.11,5.11,0,0,1,2-2,6,6,0,0,1,5.63,0,5.11,5.11,0,0,1,2,2,5.92,5.92,0,0,1,0,5.66A5.08,5.08,0,0,1,88.6,29.69Z" fill="#26244c"/>
  <path d="M113.83,25.9V17.07H111v8.72q0,4.61-4,4.61t-4-4.61V17.07h-2.9V25.9a7.1,7.1,0,0,0,1.81,5.23,7.9,7.9,0,0,0,10.09,0A7.14,7.14,0,0,0,113.83,25.9Z" fill="#26244c"/>
  <path d="M47,6.54a5.1,5.1,0,0,1-1.78,4.61l2.33,1.1a6.16,6.16,0,0,0,2-6.56A6.66,6.66,0,0,0,41.71,1.4a6.29,6.29,0,0,0-5,4.49A25.67,25.67,0,0,0,23,6.7a25.56,25.56,0,0,0-11.41,7.6A6.27,6.27,0,0,0,5,13.71a6.65,6.65,0,0,0-3.68,8.14A6,6,0,0,0,5.21,25.6,13.42,13.42,0,0,0,5.46,33l2.6,0a15.3,15.3,0,0,1,0-8.14l.31-1.08-1.18-.16A4.18,4.18,0,0,1,3.81,21a4,4,0,0,1,2.32-4.89c1.61-.79,3.22-.43,4.77,1.06L12,18.23,12.9,17a22.65,22.65,0,0,1,11-7.76,22.62,22.62,0,0,1,13.45-.42l1.47.43L39,7.75c.34-2.13,1.41-3.38,3.17-3.72C44.47,3.6,46.49,4.54,47,6.54Z" fill="#26244c"/>
</svg>
